<?xml version="1.0" encoding="utf-8"?>
<!-- Generator: Adobe Illustrator 13.0.0, SVG Export Plug-In . SVG Version: 6.00 Build 14948)  -->
<!DOCTYPE svg PUBLIC "-//W3C//DTD SVG 1.1//EN" "http://www.w3.org/Graphics/SVG/1.1/DTD/svg11.dtd">
<svg version="1.1" xmlns="http://www.w3.org/2000/svg" xmlns:xlink="http://www.w3.org/1999/xlink" x="0px" y="0px" width="595px"
	 height="595px" viewBox="0 0 595 595" enable-background="new 0 0 595 595" xml:space="preserve">
<g id="Слой_3">
	<path d="M501.734,11.333H93.924c-45.542,0-82.594,37.052-82.594,82.595v407.812c0,45.542,37.053,82.595,82.594,82.595h407.81
		c45.543,0,82.595-37.053,82.595-82.595V93.928C584.329,48.385,547.277,11.333,501.734,11.333z"/>
	
		<linearGradient id="SVGID_1_" gradientUnits="userSpaceOnUse" x1="296.9331" y1="-123.9951" x2="296.9331" y2="-230.999" gradientTransform="matrix(1 0 0 -1 0 342.0029)">
		<stop  offset="0" style="stop-color:#000000"/>
		<stop  offset="0.2467" style="stop-color:#040404"/>
		<stop  offset="0.5165" style="stop-color:#121212"/>
		<stop  offset="0.7817" style="stop-color:#262626"/>
		<stop  offset="0.9001" style="stop-color:#131313"/>
		<stop  offset="0.9949" style="stop-color:#000000"/>
	</linearGradient>
	<path fill="url(#SVGID_1_)" d="M294.277,465.998c-82.866,0-145.497,8.176-186.152,24.297
		c-41.693,16.535-47.919,36.873-47.919,47.523c0,8.902,4.063,17.527,11.44,24.285c7.674,7.027,17.742,10.898,28.35,10.898h395
		c20.867,0,38.571-15.52,38.663-33.889c0.054-10.729-6.176-31.246-48.503-48.111C443.766,474.51,380.036,466.098,295.738,466
		L294.277,465.998L294.277,465.998z"/>
	<linearGradient id="SVGID_2_" gradientUnits="userSpaceOnUse" x1="296.9331" y1="327.002" x2="296.9331" y2="19.9995">
		<stop  offset="0" style="stop-color:#000000"/>
		<stop  offset="0.156" style="stop-color:#040404"/>
		<stop  offset="0.327" style="stop-color:#121212"/>
		<stop  offset="0.505" style="stop-color:#282828"/>
		<stop  offset="0.6867" style="stop-color:#464646"/>
		<stop  offset="0.7817" style="stop-color:#595959"/>
		<stop  offset="0.8384" style="stop-color:#464646"/>
		<stop  offset="0.9534" style="stop-color:#141414"/>
		<stop  offset="0.9949" style="stop-color:#000000"/>
	</linearGradient>
	<path fill="url(#SVGID_2_)" d="M294.277,327.002c-82.866,0-145.497-23.837-186.152-70.847
		c-41.693-48.21-47.919-107.51-47.919-138.567c0-25.961,4.063-51.109,11.44-70.811C79.32,26.287,89.389,20,99.996,20h395
		c20.867,0,38.571,40.25,38.663,93.812c0.054,31.283-6.176,91.107-48.503,140.285c-41.391,48.087-105.12,72.616-189.418,72.904
		L294.277,327.002L294.277,327.002z"/>
</g>
<g id="abstract">
	<g>
		<path fill="#FBB03B" d="M324.212,449.352c-0.788,0-1.549-0.391-2.001-1.084c-0.628-0.961-0.481-2.235,0.349-3.027
			c22.919-21.92,38.482-55.122,43.827-93.493c5.147-36.967,0.654-75.591-12.649-108.755c-10.006-24.939-24.758-45.69-42.661-60.013
			c-19.861-15.889-43.197-23.946-69.357-23.946c-3.18,0-6.443,0.123-9.697,0.366c-0.059,0.004-0.118,0.006-0.177,0.006
			c-1.158,0-2.162-0.837-2.354-1.995c-0.205-1.217,0.553-2.388,1.748-2.703c15.525-4.085,30.989-6.156,45.961-6.156
			c37.914,0,72.692,13.062,100.58,37.772c25.753,22.82,43.666,54.167,50.443,88.265c6.821,34.313,2.063,68.225-13.757,98.071
			c-17.563,33.132-48.457,59.588-89.342,76.51C324.827,449.293,324.517,449.352,324.212,449.352L324.212,449.352z"/>
		<path fill="#1A1A1A" d="M277.199,150.938c155.064-0.019,223.763,222.876,47.012,296.026
			c85.134-81.421,51.37-290.301-82.493-290.317c-3.238,0-6.519,0.121-9.875,0.37C247.616,152.866,262.79,150.94,277.199,150.938
			L277.199,150.938z M277.219,146.164c-0.007,0-0.013,0-0.021,0c-15.183,0.002-30.852,2.1-46.569,6.236
			c-2.386,0.628-3.901,2.971-3.494,5.404c0.387,2.315,2.392,3.987,4.705,3.987c0.118,0,0.237-0.004,0.357-0.013
			c3.195-0.237,6.394-0.357,9.506-0.357c0.005,0,0.01,0,0.015,0c48.76,0.006,88.783,30.068,109.808,82.478
			c28.153,70.182,14.991,155.998-30.614,199.615c-1.66,1.588-1.954,4.133-0.7,6.058c0.904,1.387,2.428,2.168,4.002,2.168
			c0.611,0,1.229-0.118,1.823-0.363c21.399-8.856,40.108-20.241,55.608-33.837c14.554-12.767,26.307-27.493,34.933-43.77
			c8.14-15.357,13.429-31.942,15.721-49.293c2.193-16.598,1.609-33.545-1.736-50.371c-6.88-34.605-25.064-66.418-51.204-89.579
			C351.033,159.429,315.714,146.164,277.219,146.164L277.219,146.164z"/>
	</g>
	<g>
		<path fill="#58C1ED" d="M332.578,371.781c-0.004,0-0.01,0-0.017,0c-1.161-0.008-2.148-0.852-2.337-1.997
			c-6.976-42.058-19.74-74.542-37.942-96.544c-15.351-18.56-33.676-28.371-52.99-28.371c-19.256,0-37.42,10.042-49.836,27.55
			c-17.761,25.051-20.7,60.092-8.062,96.141c0.414,1.176-0.149,2.471-1.29,2.974c-0.312,0.137-0.64,0.204-0.962,0.204
			c-0.854,0-1.675-0.461-2.103-1.257c-30.651-57.05-36.155-107.49-15.501-142.035c14.104-23.588,40.041-37.672,69.38-37.672
			c29.346,0,57.592,13.664,77.499,37.489c19.536,23.38,39.993,66.916,26.512,141.555
			C334.723,370.954,333.733,371.781,332.578,371.781L332.578,371.781z"/>
		<path fill="#1A1A1A" d="M230.92,193.161c58.092-0.013,123.306,56.384,101.658,176.232
			c-15.132-91.251-56.321-126.908-93.285-126.911c-45.928-0.003-85.334,55.038-60.151,126.869
			C117.475,254.569,170.321,193.174,230.92,193.161L230.92,193.161z M230.939,188.387c-0.007,0-0.014,0-0.021,0
			c-14.481,0.003-28.558,3.383-40.707,9.775c-12.74,6.703-23.365,16.756-30.728,29.074c-9.95,16.644-14.062,36.842-12.221,60.033
			c2.029,25.563,11.339,53.94,27.673,84.341c0.856,1.595,2.499,2.516,4.208,2.516c0.645,0,1.298-0.131,1.923-0.406
			c2.281-1.005,3.405-3.596,2.58-5.949c-12.38-35.312-9.552-69.564,7.759-93.976c11.961-16.868,29.416-26.541,47.886-26.539
			c18.579,0.001,36.267,9.513,51.15,27.506c17.676,21.369,30.617,54.361,37.425,95.412c0.38,2.291,2.354,3.977,4.676,3.993
			c0.012,0,0.023,0,0.034,0c2.308,0,4.288-1.651,4.698-3.926c5.635-31.193,5.764-59.814,0.383-85.069
			c-4.865-22.841-14.091-42.508-27.419-58.457C289.882,202.356,260.979,188.387,230.939,188.387L230.939,188.387z"/>
	</g>
	<g>
		<path fill="#D8E000" d="M292.115,448.382c-0.116,0-0.233-0.011-0.351-0.031c-33.221-5.901-59.937-20.859-77.258-43.261
			c-14.49-18.737-21.688-42.121-19.745-64.155c2.562-29.068,20.23-48.599,43.967-48.599c14.641,0,30.6,6.964,47.44,20.701
			c0.721,0.588,0.941,1.598,0.529,2.434c-0.341,0.695-1.044,1.117-1.792,1.117c-0.152,0-0.305-0.019-0.458-0.054
			c-5.589-1.311-10.921-1.976-15.846-1.976c-19.968,0-33.754,11.072-37.827,30.375c-3.397,16.106,0.446,35.618,10.543,53.532
			c7.978,14.153,23.407,33.639,51.602,46.089c0.927,0.408,1.401,1.442,1.106,2.411C293.766,447.815,292.979,448.382,292.115,448.382
			L292.115,448.382z"/>
		<path fill="#1A1A1A" d="M238.728,294.334c13.051,0,28.672,5.973,46.175,20.251c-5.893-1.382-11.32-2.028-16.302-2.028
			c-61.816,0-53.607,99.773,23.511,133.823C172.61,425.154,177.609,294.334,238.728,294.334L238.728,294.334z M238.728,290.334
			c-24.833,0-43.303,20.264-45.96,50.424c-1.985,22.53,5.361,46.423,20.155,65.554c17.632,22.8,44.774,38.018,78.49,44.007
			c0.235,0.042,0.471,0.062,0.703,0.062c1.731,0,3.303-1.127,3.823-2.834c0.59-1.937-0.359-4.008-2.21-4.825
			c-27.693-12.227-42.839-31.351-50.668-45.24c-9.862-17.496-13.627-36.5-10.328-52.138c3.859-18.293,16.933-28.786,35.87-28.786
			c4.771,0,9.949,0.646,15.389,1.922c0.305,0.071,0.612,0.106,0.914,0.106c1.498,0,2.904-0.844,3.588-2.234
			c0.822-1.671,0.383-3.688-1.061-4.866C270.226,297.451,253.84,290.334,238.728,290.334L238.728,290.334z"/>
	</g>
	<g>
		<g>
			<path fill="#FF6969" d="M270.653,378.125c-12.373,0-22.778-9.281-24.204-21.589c-1.549-13.363,8.062-25.496,21.427-27.046
				c0.942-0.109,1.896-0.165,2.839-0.165c12.373,0,22.78,9.284,24.208,21.591c0.749,6.476-1.065,12.855-5.112,17.962
				c-4.048,5.108-9.841,8.333-16.317,9.082C272.554,378.07,271.597,378.125,270.653,378.125L270.653,378.125z"/>
			<path fill="#1A1A1A" d="M270.713,331.713c11.023-0.001,20.537,8.264,21.838,19.479c1.399,12.076-7.254,23-19.33,24.396
				c-0.862,0.1-1.72,0.149-2.567,0.149c-11.021,0-20.533-8.263-21.833-19.477c-1.4-12.075,7.255-22.999,19.33-24.399
				C269.011,331.762,269.867,331.713,270.713,331.713L270.713,331.713z M270.715,326.939c-0.001,0-0.001,0-0.002,0h0
				c-1.033,0-2.08,0.061-3.111,0.18c-14.671,1.702-25.223,15.022-23.522,29.692c1.566,13.512,12.991,23.702,26.575,23.702
				c1.036,0,2.084-0.061,3.118-0.181c7.105-0.822,13.466-4.363,17.909-9.972c4.443-5.607,6.436-12.61,5.612-19.717
				C295.726,337.129,284.3,326.939,270.715,326.939L270.715,326.939z"/>
		</g>
		<g>
			<path fill="#51E33B" d="M279.645,416.803c-7.46,0-13.734-5.597-14.593-13.016c-0.931-8.051,4.861-15.363,12.913-16.3
				c0.568-0.064,1.143-0.099,1.709-0.099c7.46,0,13.734,5.597,14.595,13.016c0.451,3.9-0.643,7.745-3.083,10.823
				c-2.44,3.081-5.932,5.025-9.834,5.477C280.786,416.768,280.211,416.803,279.645,416.803L279.645,416.803z"/>
			<path fill="#1A1A1A" d="M279.676,389.776c6.168,0,11.493,4.625,12.221,10.9c0.783,6.757-4.061,12.872-10.818,13.654
				c-0.482,0.056-0.96,0.083-1.434,0.083c-6.168,0-11.494-4.624-12.222-10.9c-0.782-6.759,4.062-12.871,10.818-13.654
				C278.723,389.804,279.202,389.776,279.676,389.776L279.676,389.776z M279.676,385.002
				C279.675,385.002,279.676,385.002,279.676,385.002c-0.66,0-1.327,0.039-1.984,0.115c-9.361,1.085-16.095,9.584-15.011,18.946
				c1,8.624,8.292,15.126,16.964,15.126c0.659,0,1.326-0.038,1.984-0.115c4.534-0.524,8.594-2.784,11.429-6.364
				c2.835-3.578,4.107-8.047,3.582-12.582C295.64,391.504,288.347,385.002,279.676,385.002L279.676,385.002z"/>
		</g>
		<g>
			<path fill="#C69C6D" d="M293.482,439.104c-4.157,0-7.653-3.117-8.136-7.252c-0.516-4.488,2.713-8.563,7.2-9.086
				c0.32-0.037,0.639-0.054,0.953-0.054c4.157,0,7.654,3.117,8.136,7.251c0.251,2.176-0.359,4.32-1.72,6.035
				c-1.359,1.716-3.305,2.798-5.48,3.052C294.115,439.088,293.795,439.104,293.482,439.104L293.482,439.104z"/>
			<path fill="#1A1A1A" d="M293.497,424.712c3.104,0,5.782,2.326,6.149,5.483c0.394,3.4-2.043,6.475-5.442,6.868
				c-0.243,0.028-0.483,0.042-0.722,0.042c-3.103,0-5.781-2.326-6.147-5.483c-0.393-3.399,2.043-6.473,5.442-6.868
				C293.019,424.726,293.259,424.712,293.497,424.712L293.497,424.712z M293.497,420.712c-0.393,0-0.791,0.023-1.181,0.068
				c-5.584,0.649-9.6,5.719-8.955,11.301c0.598,5.145,4.949,9.023,10.121,9.023c0.394,0,0.792-0.023,1.184-0.068
				c5.583-0.646,9.601-5.717,8.954-11.302C303.021,424.59,298.669,420.712,293.497,420.712L293.497,420.712z"/>
		</g>
		<g>
			<path fill="#F7931E" d="M312.9,448.78c-2.298,0-4.228-1.724-4.489-4.006c-0.141-1.199,0.196-2.384,0.947-3.331
				c0.751-0.949,1.826-1.548,3.029-1.687c0.176-0.021,0.35-0.03,0.522-0.03c2.295,0,4.227,1.723,4.493,4.006
				c0.139,1.201-0.198,2.384-0.949,3.333c-0.751,0.947-1.827,1.546-3.025,1.684C313.251,448.771,313.075,448.78,312.9,448.78
				L312.9,448.78z"/>
			<path fill="#1A1A1A" d="M312.91,441.227c1.515,0,2.822,1.137,3.003,2.68c0.192,1.659-0.998,3.16-2.658,3.353
				c-0.12,0.014-0.238,0.021-0.356,0.021c-1.514,0-2.82-1.137-2.997-2.677c-0.193-1.66,0.995-3.163,2.657-3.355
				C312.677,441.233,312.794,441.227,312.91,441.227L312.91,441.227z M312.91,438.227c-0.23,0-0.465,0.014-0.696,0.04
				c-1.601,0.186-3.032,0.983-4.032,2.246c-0.999,1.262-1.446,2.838-1.26,4.437c0.348,3.037,2.918,5.33,5.977,5.33
				c0.235,0,0.473-0.014,0.707-0.041c1.594-0.185,3.024-0.981,4.023-2.242c1.001-1.261,1.449-2.837,1.265-4.436
				C318.537,440.519,315.966,438.227,312.91,438.227L312.91,438.227z"/>
		</g>
	</g>
</g>
<g id="border">
	<path fill="#FBB03B" d="M495,0c55.229,0,100,44.771,100,100v395c0,55.229-44.771,100-100,100H100C44.771,595,0,550.229,0,495V100
		C0,44.771,44.771,0,100,0H495L495,0z M495,20H100c-44.112,0-80,35.888-80,80v395c0,44.112,35.888,80,80,80h395
		c44.112,0,80-35.888,80-80V100C575,55.888,539.112,20,495,20L495,20z"/>
	<path fill="none" stroke="#B2B2B2" stroke-width="3" d="M562,492.81c0,38.213-31.096,69.19-69.453,69.19H102.453
		C64.095,562,33,531.022,33,492.81V104.19C33,65.978,64.095,35,102.453,35h390.094C530.904,35,562,65.978,562,104.19V492.81z"/>
	<polygon fill="#FFFFFF" points="504.581,80.146 407.275,81.309 504.318,82.24 467.084,104.115 506.5,84.16 507.575,187.893 
		508.77,84.334 545.743,129.714 510.515,82.676 583.441,81.542 511.562,80.582 549.465,58.037 509.206,78.487 508.041,6.607 
		506.675,78.138 477.266,44.016 	"/>
</g>
</svg>
