<?xml version="1.0" encoding="utf-8"?>
<!-- Generator: Adobe Illustrator 13.0.0, SVG Export Plug-In . SVG Version: 6.00 Build 14948)  -->
<!DOCTYPE svg PUBLIC "-//W3C//DTD SVG 1.1//EN" "http://www.w3.org/Graphics/SVG/1.1/DTD/svg11.dtd">
<svg version="1.1" xmlns="http://www.w3.org/2000/svg" xmlns:xlink="http://www.w3.org/1999/xlink" x="0px" y="0px" width="595px"
	 height="595px" viewBox="0 0 595 595" enable-background="new 0 0 595 595" xml:space="preserve">
<g id="Слой_3">
	<path d="M500.729,11.829H92.919c-45.542,0-82.594,37.052-82.594,82.595v407.811c0,45.543,37.053,82.596,82.594,82.596h407.81
		c45.543,0,82.595-37.053,82.595-82.596V94.423C583.324,48.881,546.272,11.829,500.729,11.829z"/>
	
		<linearGradient id="SVGID_1_" gradientUnits="userSpaceOnUse" x1="295.9282" y1="-124.4912" x2="295.9282" y2="-231.4951" gradientTransform="matrix(1 0 0 -1 0 342.0029)">
		<stop  offset="0" style="stop-color:#000000"/>
		<stop  offset="0.2467" style="stop-color:#040404"/>
		<stop  offset="0.5165" style="stop-color:#121212"/>
		<stop  offset="0.7817" style="stop-color:#262626"/>
		<stop  offset="0.9001" style="stop-color:#131313"/>
		<stop  offset="0.9949" style="stop-color:#000000"/>
	</linearGradient>
	<path fill="url(#SVGID_1_)" d="M293.272,466.494c-82.866,0-145.497,8.176-186.152,24.297
		c-41.693,16.535-47.919,36.873-47.919,47.523c0,8.902,4.063,17.527,11.44,24.285c7.674,7.027,17.742,10.898,28.35,10.898h395
		c20.867,0,38.571-15.52,38.663-33.889c0.054-10.729-6.176-31.246-48.503-48.111c-41.391-16.492-105.12-24.904-189.418-25.002
		L293.272,466.494L293.272,466.494z"/>
	<linearGradient id="SVGID_2_" gradientUnits="userSpaceOnUse" x1="295.9282" y1="327.4976" x2="295.9282" y2="20.4951">
		<stop  offset="0" style="stop-color:#000000"/>
		<stop  offset="0.156" style="stop-color:#040404"/>
		<stop  offset="0.327" style="stop-color:#121212"/>
		<stop  offset="0.505" style="stop-color:#282828"/>
		<stop  offset="0.6867" style="stop-color:#464646"/>
		<stop  offset="0.7817" style="stop-color:#595959"/>
		<stop  offset="0.8384" style="stop-color:#464646"/>
		<stop  offset="0.9534" style="stop-color:#141414"/>
		<stop  offset="0.9949" style="stop-color:#000000"/>
	</linearGradient>
	<path fill="url(#SVGID_2_)" d="M293.272,327.498c-82.866,0-145.497-23.837-186.152-70.847
		c-41.693-48.21-47.919-107.51-47.919-138.567c0-25.961,4.063-51.109,11.44-70.811c7.674-20.491,17.742-26.778,28.35-26.778h395
		c20.867,0,38.571,40.25,38.663,93.812c0.054,31.283-6.176,91.107-48.503,140.285c-41.391,48.087-105.12,72.616-189.418,72.904
		L293.272,327.498L293.272,327.498z"/>
</g>
<g id="abstract">
	<g>
		<path fill="#FBB03B" d="M296.131,469.733c-0.957,0-1.854-0.553-2.27-1.454c-23.971-51.93-31.245-88.149-22.238-110.731
			c7.551-18.935,25.165-25.958,40.703-32.153c16.309-6.504,30.396-12.121,31.352-29.367c1.196-21.493-12.816-34.822-29.043-50.255
			c-12.39-11.785-26.432-25.144-34.394-43.923c-9.098-21.453-8.955-46.853,0.434-77.65c0.323-1.063,1.303-1.771,2.39-1.771
			c0.103,0,0.208,0.006,0.313,0.019c1.208,0.151,2.13,1.15,2.187,2.365c3.302,71.091,51.382,92.798,93.801,111.949
			c37.72,17.028,73.345,33.114,67.007,81.186c-4.939,37.463-38.639,49.236-71.226,60.62c-19.905,6.953-40.485,14.144-55.167,27.042
			c-16.336,14.355-23.323,34.45-21.354,61.44c0.088,1.206-0.699,2.302-1.867,2.604C296.549,469.708,296.339,469.733,296.131,469.733
			L296.131,469.733z"/>
		<path fill="#1A1A1A" d="M283.066,124.928c6.353,136.765,173.824,94.117,160.826,192.691
			c-10.565,80.122-155.975,36.955-147.762,149.613c-78.51-170.093,46.979-115.841,50.045-171.065
			C349.377,238.611,249.028,236.585,283.066,124.928L283.066,124.928z M283.063,119.928c-2.173,0-4.131,1.417-4.779,3.542
			c-9.567,31.384-9.68,57.341-0.345,79.356c8.167,19.259,22.408,32.806,34.974,44.758c15.777,15.007,29.402,27.968,28.271,48.305
			c-0.827,14.899-11.856,20.036-29.783,27.184c-16.007,6.382-34.15,13.616-42.1,33.55c-4.501,11.287-5.168,25.225-2.039,42.609
			c3.452,19.178,11.41,42.105,24.329,70.096c0.832,1.803,2.626,2.904,4.538,2.904c0.415,0,0.834-0.051,1.251-0.159
			c2.34-0.604,3.913-2.794,3.737-5.204c-1.934-26.519,4.584-45.387,20.511-59.38c14.315-12.578,34.663-19.686,54.341-26.561
			c33.303-11.635,67.739-23.666,72.881-62.655c2.974-22.553-2.83-40.37-17.744-54.47c-13.006-12.296-31.322-20.565-50.714-29.32
			c-43.804-19.776-89.1-40.226-92.331-109.787c-0.113-2.43-1.958-4.427-4.373-4.729C283.479,119.941,283.27,119.928,283.063,119.928
			L283.063,119.928z"/>
	</g>
	<g>
		<path fill="#808080" d="M291.491,487.294c-0.632,0-1.263-0.236-1.747-0.71c-27.836-27.157-54.054-66.97-70.131-106.496
			c-18.4-45.243-21.136-84.367-7.699-110.164c15.949-30.622,39.53-35.193,52.168-35.193c27.126,0,51.009,20.234,51.104,43.299
			c0.122,28.933-18.966,35.751-35.809,41.769c-7.735,2.763-15.04,5.372-20.327,9.848c-24.101,20.398-20.222,81.179,34.436,153.641
			c0.788,1.044,0.639,2.519-0.342,3.384C292.671,487.088,292.08,487.294,291.491,487.294L291.491,487.294z"/>
		<path fill="#1A1A1A" d="M264.082,237.231c25.344-0.003,48.512,18.608,48.604,40.81c0.169,39.829-37.536,34.7-55.252,49.697
			c-27.367,23.165-18.306,87.633,34.057,157.056c-53.492-52.185-106.219-158.306-77.36-213.713
			C226.828,246.701,246.01,237.234,264.082,237.231L264.082,237.231z M264.087,232.231c-0.002,0-0.003,0-0.006,0
			c-10.473,0.001-20.725,2.957-29.646,8.546c-10.008,6.271-18.332,15.689-24.74,27.994C179.053,327.606,234.65,436.327,288,488.373
			c0.968,0.944,2.229,1.421,3.492,1.421c1.178,0,2.357-0.414,3.304-1.248c1.962-1.728,2.262-4.676,0.687-6.763
			c-24.119-31.977-40.459-65.295-46.011-93.819c-5.058-25.985-1.083-46.019,11.193-56.41c4.94-4.182,12.038-6.717,19.553-9.401
			c16.751-5.983,37.599-13.429,37.469-44.133c-0.05-11.978-6.117-23.846-16.645-32.562
			C290.889,237.053,277.419,232.231,264.087,232.231L264.087,232.231z"/>
	</g>
</g>
<g id="border">
	<path fill="#FBB03B" d="M495,0c55.229,0,100,44.771,100,100v395c0,55.229-44.771,100-100,100H100C44.771,595,0,550.229,0,495V100
		C0,44.771,44.771,0,100,0H495L495,0z M495,20H100c-44.112,0-80,35.888-80,80v395c0,44.112,35.888,80,80,80h395
		c44.112,0,80-35.888,80-80V100C575,55.888,539.112,20,495,20L495,20z"/>
	<path fill="none" stroke="#B2B2B2" stroke-width="3" d="M562,492.81c0,38.213-31.096,69.19-69.453,69.19H102.453
		C64.095,562,33,531.022,33,492.81V104.19C33,65.978,64.095,35,102.453,35h390.094C530.904,35,562,65.978,562,104.19V492.81z"/>
	<polygon fill="#FFFFFF" points="505.407,79.146 408.102,80.309 505.145,81.24 467.91,103.115 507.326,83.16 508.401,186.893 
		509.596,83.334 546.569,128.714 511.341,81.676 584.268,80.542 512.388,79.582 550.291,57.037 510.032,77.487 508.867,5.607 
		507.501,77.138 478.092,43.016 	"/>
</g>
</svg>
