<?xml version="1.0" encoding="utf-8"?>
<!-- Generator: Adobe Illustrator 13.0.0, SVG Export Plug-In . SVG Version: 6.00 Build 14948)  -->
<!DOCTYPE svg PUBLIC "-//W3C//DTD SVG 1.1//EN" "http://www.w3.org/Graphics/SVG/1.1/DTD/svg11.dtd">
<svg version="1.1" xmlns="http://www.w3.org/2000/svg" xmlns:xlink="http://www.w3.org/1999/xlink" x="0px" y="0px" width="595px"
	 height="595px" viewBox="0 0 595 595" enable-background="new 0 0 595 595" xml:space="preserve">
<g id="Слой_3">
	<path d="M501.729,11.829H93.919c-45.542,0-82.594,37.052-82.594,82.595v407.811c0,45.543,37.053,82.596,82.594,82.596h407.81
		c45.543,0,82.595-37.053,82.595-82.596V94.423C584.324,48.881,547.272,11.829,501.729,11.829z"/>
	
		<linearGradient id="SVGID_1_" gradientUnits="userSpaceOnUse" x1="296.9282" y1="-124.4912" x2="296.9282" y2="-231.4951" gradientTransform="matrix(1 0 0 -1 0 342.0029)">
		<stop  offset="0" style="stop-color:#000000"/>
		<stop  offset="0.2467" style="stop-color:#040404"/>
		<stop  offset="0.5165" style="stop-color:#121212"/>
		<stop  offset="0.7817" style="stop-color:#262626"/>
		<stop  offset="0.9001" style="stop-color:#131313"/>
		<stop  offset="0.9949" style="stop-color:#000000"/>
	</linearGradient>
	<path fill="url(#SVGID_1_)" d="M294.272,466.494c-82.866,0-145.497,8.176-186.152,24.297
		c-41.693,16.535-47.919,36.873-47.919,47.523c0,8.902,4.063,17.527,11.44,24.285c7.674,7.027,17.742,10.898,28.35,10.898h395
		c20.867,0,38.571-15.52,38.663-33.889c0.054-10.729-6.176-31.246-48.503-48.111c-41.391-16.492-105.12-24.904-189.418-25.002
		L294.272,466.494L294.272,466.494z"/>
	<linearGradient id="SVGID_2_" gradientUnits="userSpaceOnUse" x1="296.9282" y1="327.4976" x2="296.9282" y2="20.4951">
		<stop  offset="0" style="stop-color:#000000"/>
		<stop  offset="0.156" style="stop-color:#040404"/>
		<stop  offset="0.327" style="stop-color:#121212"/>
		<stop  offset="0.505" style="stop-color:#282828"/>
		<stop  offset="0.6867" style="stop-color:#464646"/>
		<stop  offset="0.7817" style="stop-color:#595959"/>
		<stop  offset="0.8384" style="stop-color:#464646"/>
		<stop  offset="0.9534" style="stop-color:#141414"/>
		<stop  offset="0.9949" style="stop-color:#000000"/>
	</linearGradient>
	<path fill="url(#SVGID_2_)" d="M294.272,327.498c-82.866,0-145.497-23.837-186.152-70.847
		c-41.693-48.21-47.919-107.51-47.919-138.567c0-25.961,4.063-51.109,11.44-70.811c7.674-20.491,17.742-26.778,28.35-26.778h395
		c20.867,0,38.571,40.25,38.663,93.812c0.054,31.283-6.176,91.107-48.503,140.285c-41.391,48.087-105.12,72.616-189.418,72.904
		L294.272,327.498L294.272,327.498z"/>
</g>
<g id="abstract">
	<g>
		<path fill="#999999" d="M339.253,394.516c-0.557,0-1.11-0.232-1.506-0.683C249.979,293.588,208.951,279.77,177.688,279.77
			c-8.31,0-16.241,1.069-23.911,2.105c-7.78,1.049-15.823,2.134-24.354,2.134c-1.028,0-1.888-0.777-1.989-1.799
			c-0.104-1.022,0.585-1.957,1.59-2.161c82.153-16.696,86.86-102.539,83.254-165.656c-0.06-1.063,0.724-1.989,1.785-2.103
			c0.072-0.008,0.143-0.01,0.213-0.01c0.974,0,1.82,0.705,1.975,1.688c8.315,52.777,20.449,96.675,38.18,138.15
			c20.195,47.237,48.447,92.747,86.371,139.133c0.69,0.844,0.577,2.087-0.257,2.792C340.169,394.36,339.71,394.516,339.253,394.516
			L339.253,394.516z"/>
		<path fill="#1A1A1A" d="M214.276,114.28c15.132,96.035,45.386,180.884,124.977,278.235
			C253.244,294.281,210.997,277.77,177.689,277.77c-16.873,0-31.457,4.24-48.265,4.24
			C210.329,265.566,218.223,183.345,214.276,114.28L214.276,114.28z M214.28,110.279c-0.142,0-0.286,0.008-0.43,0.023
			c-2.12,0.227-3.689,2.077-3.567,4.206c3.564,62.375-1.022,147.194-81.655,163.582c-2.013,0.409-3.389,2.276-3.183,4.32
			s1.926,3.6,3.98,3.6c8.665,0,16.776-1.094,24.62-2.153c7.955-1.073,15.468-2.087,23.645-2.087
			c13.016,0,31.469,2.262,58.854,19.897c27.544,17.739,60.156,48.317,99.701,93.482c0.79,0.902,1.897,1.365,3.012,1.365
			c0.913,0,1.831-0.311,2.582-0.947c1.666-1.41,1.895-3.895,0.513-5.585c-70.901-86.722-106.862-166.779-124.123-276.326
			C217.918,111.695,216.225,110.279,214.28,110.279L214.28,110.279z"/>
	</g>
	<g>
		<path fill="#FBB03B" d="M277.421,490.219c-0.88,0-1.678-0.585-1.925-1.463c-8.939-32.009-22.739-57.055-41.012-74.444
			c-21.43-20.389-49.817-31.033-84.375-31.637c-1.019-0.019-1.861-0.799-1.957-1.813c-0.095-1.017,0.589-1.94,1.587-2.145
			c85.676-17.694,130.679-130.213,166.134-234.288c0.004-0.014,0.011-0.031,0.017-0.045l1.143-3.365
			c0.007-0.021,0.015-0.042,0.023-0.062c2.668-7.871,5.541-16.48,8.783-26.316c0.278-0.84,1.061-1.374,1.9-1.374
			c0.199,0,0.402,0.029,0.604,0.093c1.045,0.332,1.628,1.44,1.309,2.49c-1.699,5.583-4.089,12.572-6.854,20.667l-1.958,5.732
			c-0.007,0.019-0.013,0.04-0.019,0.058l-1.146,3.365c-0.004,0.015-0.011,0.029-0.015,0.043
			c-11.982,35.353-25.482,78.925-34.741,134.059c-11.495,68.442-13.35,138.497-5.51,208.221c0.116,1.037-0.583,1.987-1.605,2.187
			C277.676,490.206,277.547,490.219,277.421,490.219L277.421,490.219z"/>
		<path fill="#1A1A1A" d="M327.74,115.266c-2.075,6.817-5.153,15.65-8.81,26.386C321.898,132.896,324.832,124.084,327.74,115.266
			L327.74,115.266z M318.931,141.652c-0.39,1.148-0.775,2.284-1.166,3.431C318.16,143.915,318.547,142.777,318.931,141.652
			L318.931,141.652z M317.765,145.083c-20.957,61.824-58.447,182.12-40.343,343.137c-16.442-58.871-51.961-106.23-127.278-107.544
			C233.653,363.429,279.03,258.775,317.765,145.083L317.765,145.083z M327.739,111.265c-1.681,0-3.243,1.068-3.798,2.749
			c-3.24,9.825-6.117,18.441-8.795,26.341c-0.001,0.002-0.002,0.004-0.003,0.007c-0.384,1.127-0.771,2.267-1.168,3.436
			c-0.001,0.005-0.003,0.011-0.005,0.016c-17.263,50.668-38.676,108.478-66.617,153.11c-28.83,46.053-60.892,72.167-98.019,79.834
			c-1.996,0.413-3.363,2.26-3.174,4.289c0.19,2.03,1.875,3.592,3.913,3.628c63.748,1.112,104.144,35.334,123.495,104.621
			c0.49,1.755,2.088,2.925,3.85,2.925c0.253,0,0.509-0.024,0.767-0.074c2.046-0.398,3.444-2.302,3.21-4.374
			c-16.683-148.381,12.697-260.396,40.156-341.406c0-0.001,0.001-0.002,0.001-0.003c0.387-1.135,0.769-2.259,1.154-3.396
			c0.003-0.009,0.006-0.018,0.009-0.026c0.68-1.995,1.339-3.924,1.976-5.786c2.771-8.107,5.166-15.109,6.875-20.725
			c0.638-2.096-0.53-4.315-2.618-4.978C328.547,111.326,328.14,111.265,327.739,111.265L327.739,111.265z"/>
	</g>
	<g>
		<path fill="#808080" d="M443.179,358.009c-0.26,0-0.523-0.05-0.776-0.157c-13.855-5.849-25.858-11.476-37.467-16.917
			c-36.803-17.248-65.871-30.87-114.535-30.87c-33.121,0-73.776,6.123-127.945,19.274c-0.159,0.038-0.316,0.056-0.474,0.056
			c-0.896,0-1.713-0.609-1.939-1.518c-0.266-1.068,0.383-2.148,1.449-2.421c147.844-37.527,208.578-60.604,260.198-154.914
			c0.362-0.662,1.048-1.039,1.755-1.039c0.309,0,0.618,0.069,0.909,0.218c0.964,0.49,1.361,1.659,0.898,2.637
			c-17.884,37.835-25.911,72.065-23.86,101.744c2.247,32.543,16.724,59.572,43.026,80.335c0.785,0.622,0.99,1.728,0.481,2.588
			C444.531,357.653,443.868,358.009,443.179,358.009L443.179,358.009z"/>
		<path fill="#1A1A1A" d="M423.446,171.505c-34.201,72.355-36.507,140.104,19.732,184.504
			c-59.386-25.074-88.779-47.941-152.779-47.944c-31.699-0.002-71.877,5.605-128.416,19.332
			C312.287,289.246,372.141,265.237,423.446,171.505L423.446,171.505z M423.449,167.504c-1.417,0-2.786,0.755-3.512,2.081
			C368.697,263.197,308.229,286.149,161,323.519c-2.134,0.542-3.429,2.705-2.898,4.841c0.452,1.82,2.083,3.037,3.879,3.037
			c0.313,0,0.63-0.037,0.947-0.114c54.015-13.114,94.521-19.221,127.472-19.219c48.22,0.002,75.683,12.873,113.691,30.685
			c11.625,5.448,23.645,11.081,37.532,16.944c0.506,0.213,1.033,0.315,1.554,0.315c1.378,0,2.706-0.714,3.445-1.965
			c1.019-1.724,0.606-3.935-0.965-5.175c-62.306-49.188-44.502-124.847-18.595-179.655c0.925-1.956,0.127-4.292-1.801-5.274
			C424.681,167.645,424.061,167.504,423.449,167.504L423.449,167.504z"/>
	</g>
	<g>
		<path fill="#CCCCCC" d="M346.284,479.001c-0.299,0-0.604-0.066-0.888-0.209c-0.94-0.468-1.358-1.584-0.957-2.556
			c24.517-59.32,3.089-171.047-11.09-244.979c-3.521-18.349-6.559-34.196-8.188-45.783c-0.146-1.045,0.544-2.023,1.576-2.237
			c0.136-0.027,0.271-0.042,0.405-0.042c0.885,0,1.687,0.587,1.93,1.469c1.764,6.418,3.938,15.452,6.454,25.913
			c14.465,60.129,44.564,185.249,90.522,185.239c0.278,0,0.563-0.004,0.843-0.013c0.022,0,0.046-0.002,0.068-0.002
			c0.943,0,1.763,0.665,1.954,1.595c0.197,0.953-0.319,1.91-1.225,2.266c-32.774,12.912-52.879,32.684-79.68,78.35
			C347.641,478.644,346.975,479.001,346.284,479.001L346.284,479.001z"/>
		<path fill="#1A1A1A" d="M327.144,185.197c12.298,44.724,43.452,212.62,98.908,212.62c0.3,0,0.605-0.005,0.906-0.015
			c-34.749,13.69-55.142,35.694-80.672,79.199C377.313,401.935,335.152,242.208,327.144,185.197L327.144,185.197z M327.146,181.196
			c-0.269,0-0.541,0.027-0.813,0.084c-2.065,0.427-3.444,2.385-3.15,4.474c1.635,11.637,4.679,27.507,8.202,45.883
			c7.061,36.811,15.847,82.624,19.927,127.408c4.788,52.559,1.936,90.643-8.722,116.428c-0.803,1.942,0.034,4.175,1.916,5.11
			c0.57,0.283,1.178,0.419,1.777,0.419c1.378,0,2.712-0.714,3.453-1.977c26.537-45.222,46.394-64.778,78.688-77.501
			c1.812-0.713,2.846-2.627,2.451-4.533c-0.386-1.862-2.026-3.189-3.916-3.189c-0.044,0-0.089,0-0.133,0.002
			c-0.258,0.009-0.519,0.013-0.774,0.013c-18.714,0-37.091-22.568-54.62-67.078c-15.167-38.509-26.478-85.523-33.962-116.634
			c-2.521-10.475-4.696-19.521-6.47-25.969C330.515,182.372,328.912,181.196,327.146,181.196L327.146,181.196z"/>
	</g>
</g>
<g id="border">
	<path fill="#FBB03B" d="M495,0c55.229,0,100,44.771,100,100v395c0,55.229-44.771,100-100,100H100C44.771,595,0,550.229,0,495V100
		C0,44.771,44.771,0,100,0H495L495,0z M495,20H100c-44.112,0-80,35.888-80,80v395c0,44.112,35.888,80,80,80h395
		c44.112,0,80-35.888,80-80V100C575,55.888,539.112,20,495,20L495,20z"/>
	<path fill="none" stroke="#B2B2B2" stroke-width="3" d="M562,492.81c0,38.213-31.096,69.19-69.453,69.19H102.453
		C64.095,562,33,531.022,33,492.81V104.19C33,65.978,64.095,35,102.453,35h390.094C530.904,35,562,65.978,562,104.19V492.81z"/>
	<polygon fill="#FFFFFF" points="505.683,79.146 408.377,80.309 505.42,81.24 468.186,103.115 507.602,83.16 508.677,186.893 
		509.871,83.334 546.845,128.714 511.616,81.676 584.543,80.542 512.663,79.582 550.566,57.037 510.308,77.487 509.143,5.607 
		507.776,77.138 478.367,43.016 	"/>
</g>
</svg>
