<?xml version="1.0" encoding="utf-8"?>
<!-- Generator: Adobe Illustrator 13.0.0, SVG Export Plug-In . SVG Version: 6.00 Build 14948)  -->
<!DOCTYPE svg PUBLIC "-//W3C//DTD SVG 1.1//EN" "http://www.w3.org/Graphics/SVG/1.1/DTD/svg11.dtd">
<svg version="1.1" xmlns="http://www.w3.org/2000/svg" xmlns:xlink="http://www.w3.org/1999/xlink" x="0px" y="0px" width="595px"
	 height="595px" viewBox="0 0 595 595" enable-background="new 0 0 595 595" xml:space="preserve">
<g id="Слой_3">
	<path d="M500.729,11.829H92.919c-45.542,0-82.594,37.052-82.594,82.595v407.811c0,45.543,37.053,82.596,82.594,82.596h407.81
		c45.543,0,82.595-37.053,82.595-82.596V94.423C583.324,48.881,546.272,11.829,500.729,11.829z"/>
	
		<linearGradient id="SVGID_1_" gradientUnits="userSpaceOnUse" x1="295.9282" y1="-124.4912" x2="295.9282" y2="-231.4951" gradientTransform="matrix(1 0 0 -1 0 342.0029)">
		<stop  offset="0" style="stop-color:#000000"/>
		<stop  offset="0.2467" style="stop-color:#040404"/>
		<stop  offset="0.5165" style="stop-color:#121212"/>
		<stop  offset="0.7817" style="stop-color:#262626"/>
		<stop  offset="0.9001" style="stop-color:#131313"/>
		<stop  offset="0.9949" style="stop-color:#000000"/>
	</linearGradient>
	<path fill="url(#SVGID_1_)" d="M293.272,466.494c-82.866,0-145.497,8.176-186.152,24.297
		c-41.693,16.535-47.919,36.873-47.919,47.523c0,8.902,4.063,17.527,11.44,24.285c7.674,7.027,17.742,10.898,28.35,10.898h395
		c20.867,0,38.571-15.52,38.663-33.889c0.054-10.729-6.176-31.246-48.503-48.111c-41.391-16.492-105.12-24.904-189.418-25.002
		L293.272,466.494L293.272,466.494z"/>
	<linearGradient id="SVGID_2_" gradientUnits="userSpaceOnUse" x1="295.9282" y1="327.4976" x2="295.9282" y2="20.4951">
		<stop  offset="0" style="stop-color:#000000"/>
		<stop  offset="0.156" style="stop-color:#040404"/>
		<stop  offset="0.327" style="stop-color:#121212"/>
		<stop  offset="0.505" style="stop-color:#282828"/>
		<stop  offset="0.6867" style="stop-color:#464646"/>
		<stop  offset="0.7817" style="stop-color:#595959"/>
		<stop  offset="0.8384" style="stop-color:#464646"/>
		<stop  offset="0.9534" style="stop-color:#141414"/>
		<stop  offset="0.9949" style="stop-color:#000000"/>
	</linearGradient>
	<path fill="url(#SVGID_2_)" d="M293.272,327.498c-82.866,0-145.497-23.837-186.152-70.847
		c-41.693-48.21-47.919-107.51-47.919-138.567c0-25.961,4.063-51.109,11.44-70.811c7.674-20.491,17.742-26.778,28.35-26.778h395
		c20.867,0,38.571,40.25,38.663,93.812c0.054,31.283-6.176,91.107-48.503,140.285c-41.391,48.087-105.12,72.616-189.418,72.904
		L293.272,327.498L293.272,327.498z"/>
</g>
<g id="abstract">
	<g>
		<path fill="#CCCCCC" d="M413.022,418.665c-0.533,0-1.063-0.168-1.511-0.507c-0.926-0.703-1.246-1.95-0.772-3.011
			c34.378-77.008,27.94-146.084-20.257-217.391c-0.732-1.08-0.509-2.54,0.512-3.354c0.458-0.366,1.01-0.545,1.559-0.545
			c0.669,0,1.334,0.268,1.824,0.792c53.448,57.094,62.224,107.896,60.175,140.46c-2.106,33.425-16.659,63.669-39.933,82.979
			C414.156,418.471,413.59,418.665,413.022,418.665L413.022,418.665z"/>
		<path fill="#1A1A1A" d="M392.553,196.357c87.645,93.621,64.9,182.943,20.47,219.808
			C449.391,334.699,438.931,264.969,392.553,196.357L392.553,196.357z M392.551,191.357c-1.097,0-2.198,0.359-3.116,1.092
			c-2.039,1.626-2.485,4.547-1.024,6.708c47.668,70.52,54.038,138.828,20.047,214.97c-0.947,2.122-0.308,4.617,1.543,6.021
			c0.896,0.679,1.96,1.017,3.022,1.017c1.136,0,2.269-0.386,3.192-1.152c23.802-19.749,38.685-50.638,40.832-84.748
			c2.081-33.056-6.785-84.581-60.844-142.325C395.223,191.893,393.891,191.357,392.551,191.357L392.551,191.357z"/>
	</g>
	<g>
		<path fill="#FBB03B" d="M396.921,395.269c-0.035,0-0.072,0-0.108-0.002c-1.306-0.056-2.349-1.108-2.393-2.416
			c-1.415-43.358-11.927-72.581-32.138-89.34c-17.927-14.862-41.662-18.784-64.618-22.577c-22.033-3.643-44.817-7.407-61.707-21.046
			c-21.059-17.004-28.708-41.086-20.464-64.417c9.208-26.058,35.92-44.256,64.959-44.256c11.06,0,22.229,2.481,33.191,7.374
			c28.73,12.824,53.384,42.484,69.419,83.519c17.184,43.977,22.834,96.177,16.339,150.957
			C399.252,394.325,398.182,395.269,396.921,395.269L396.921,395.269z"/>
		<path fill="#1A1A1A" d="M280.453,153.713c10.203-0.001,21.059,2.196,32.173,7.157c55.603,24.816,97.923,116.941,84.294,231.899
			c-4.744-145.313-108.554-93.777-159.391-134.826C188.957,218.72,224.975,153.717,280.453,153.713L280.453,153.713z
			 M280.458,148.713c-0.002,0-0.003,0-0.005,0c-15.339,0.001-29.965,4.62-42.299,13.358c-11.621,8.233-20.506,19.8-25.018,32.569
			c-8.611,24.374-0.667,49.493,21.251,67.193c17.403,14.052,40.517,17.872,62.869,21.566c22.626,3.739,46.022,7.605,63.429,22.037
			c19.629,16.273,29.846,44.894,31.237,87.496c0.085,2.614,2.171,4.721,4.783,4.833c0.073,0.003,0.146,0.004,0.217,0.004
			c2.521,0,4.663-1.886,4.962-4.411c3.339-28.162,3.474-55.888,0.399-82.407c-2.899-25.021-8.583-48.49-16.893-69.754
			c-16.275-41.651-41.394-71.8-70.728-84.893C303.378,151.267,291.868,148.713,280.458,148.713L280.458,148.713z"/>
	</g>
	<g>
		<path fill="#808080" d="M260.455,461.672c-0.387,0-0.773-0.089-1.133-0.272c-66.484-33.855-108.01-84.854-116.929-143.601
			c-8.588-56.576,14.112-114.456,63.92-162.977c0.482-0.47,1.113-0.709,1.745-0.709c0.558,0,1.115,0.185,1.577,0.559
			c0.984,0.801,1.215,2.211,0.535,3.282c-23.199,36.514-30.351,67.246-21.258,91.34c13.59,36.015,59.665,49.419,84.417,56.622
			c2.895,0.842,5.395,1.57,7.566,2.252c69.908,21.986,105.937,69.714,104.19,138.021c-0.033,1.285-1.038,2.338-2.321,2.43
			c-0.061,0.004-0.121,0.006-0.181,0.006c-1.209,0-2.257-0.871-2.463-2.08c-3.295-19.325-15.227-37.227-33.6-50.407
			c-16.431-11.787-36.92-18.823-54.808-18.823c-16.2,0-28.735,5.674-35.295,15.979c-9.047,14.214-6.867,36.626,6.304,64.818
			c0.451,0.967,0.239,2.115-0.528,2.855C261.716,461.431,261.09,461.672,260.455,461.672L260.455,461.672z"/>
		<path fill="#1A1A1A" d="M208.058,156.614c-76.431,120.308,40.34,143.956,72.086,153.941
			c71.891,22.61,104.074,71.662,102.44,135.57c-7.439-43.635-54.557-71.31-90.872-71.311c-34.381,0-59.08,24.805-31.257,84.357
			C126.142,390.776,105.042,256.967,208.058,156.614L208.058,156.614z M208.059,151.614c-1.264,0-2.523,0.477-3.49,1.418
			c-50.401,49.098-73.36,107.747-64.647,165.141c4.412,29.061,16.669,56.325,36.431,81.036
			c20.364,25.463,47.896,47.136,81.833,64.418c0.719,0.366,1.497,0.544,2.268,0.544c1.269,0,2.522-0.482,3.477-1.405
			c1.535-1.483,1.958-3.777,1.055-5.711c-12.791-27.379-15.024-48.963-6.459-62.419c6.084-9.559,17.87-14.822,33.186-14.822
			c35.235,0,79.196,27.579,85.943,67.15c0.412,2.417,2.508,4.16,4.925,4.16c0.12,0,0.24-0.004,0.361-0.013
			c2.567-0.185,4.575-2.287,4.641-4.859c0.862-33.721-7.416-62.771-24.606-86.346c-17.92-24.576-45.284-42.785-81.332-54.122
			c-2.196-0.691-4.708-1.422-7.616-2.268c-24.334-7.081-69.629-20.26-82.779-55.104c-8.8-23.319-1.725-53.303,21.028-89.118
			c1.361-2.142,0.902-4.962-1.067-6.562C210.288,151.984,209.172,151.614,208.059,151.614L208.059,151.614z"/>
	</g>
</g>
<g id="border">
	<path fill="#FBB03B" d="M495,0c55.229,0,100,44.771,100,100v395c0,55.229-44.771,100-100,100H100C44.771,595,0,550.229,0,495V100
		C0,44.771,44.771,0,100,0H495L495,0z M495,20H100c-44.112,0-80,35.888-80,80v395c0,44.112,35.888,80,80,80h395
		c44.112,0,80-35.888,80-80V100C575,55.888,539.112,20,495,20L495,20z"/>
	<path fill="none" stroke="#B2B2B2" stroke-width="3" d="M562,492.81c0,38.213-31.096,69.19-69.453,69.19H102.453
		C64.095,562,33,531.022,33,492.81V104.19C33,65.978,64.095,35,102.453,35h390.094C530.904,35,562,65.978,562,104.19V492.81z"/>
	<polygon fill="#FFFFFF" points="505.407,79.146 408.102,80.309 505.145,81.24 467.91,103.115 507.326,83.16 508.401,186.893 
		509.596,83.334 546.569,128.714 511.341,81.676 584.268,80.542 512.388,79.582 550.291,57.037 510.032,77.487 508.867,5.607 
		507.501,77.138 478.092,43.016 	"/>
</g>
</svg>
